<svg version="1.1" id="Layer_1" xmlns="http://www.w3.org/2000/svg" xmlns:xlink="http://www.w3.org/1999/xlink" x="0px" y="0px" width="32px" height="32px" viewBox="0 0 32 32" enable-background="new 0 0 32 32" xml:space="preserve">
  <g id="main">
    <g id="icon">
      <path d="M6.192,15L5.932,15.03L5.742,15.07L5.5,15.14L5.242,15.26L4.832,15.53L4.558,15.79L4.281,16.19L4.149,16.45L4.074,16.69L4.032,16.89L4.005,17.14L4,17.24L4,20L6,20L6,17.3L6.009,17.21L6.086,17.1L6.212,17.01L6.223,17.01L6.338,17L22.54,17L22.9,16.78L23.5,16.49L24.13,16.27L24.79,16.1L25.46,16L25.59,16L25.44,15.79L25.17,15.53L24.76,15.26L24.5,15.14L24.26,15.07L24.07,15.03L23.81,15L23.71,15L6.289,15zz" fill="#797979"/>
      <path d="M14,20L16,20L16,12L14,12zz" fill="#797979"/>
      <path d="M1.488,21.06L1.234,21.23L1.063,21.49L1,21.8L1,28.2L1.063,28.51L1.234,28.77L1.488,28.94L1.8,29L7.2,29L7.512,28.94L7.766,28.77L7.937,28.51L8,28.2L8,21.8L7.937,21.49L7.766,21.23L7.512,21.06L7.2,21L1.8,21zM11.49,21.06L11.23,21.23L11.06,21.49L11,21.8L11,28.2L11.06,28.51L11.23,28.77L11.49,28.94L11.8,29L16.74,29L19,26.76L19,21.8L18.94,21.49L18.77,21.23L18.51,21.06L18.2,21L11.8,21zz" fill="#FFFFFF"/>
      <path d="M1.602,20.02L1.291,20.08L0.9295,20.23L0.6754,20.41L0.4051,20.68L0.2336,20.93L0.08262,21.29L0.01973,21.6L0,21.8L0,28.2L0.01973,28.4L0.08262,28.71L0.2336,29.07L0.4051,29.32L0.6754,29.59L0.9295,29.77L1.291,29.92L1.602,29.98L1.8,30L7.2,30L7.398,29.98L7.709,29.92L8.071,29.77L8.325,29.59L8.595,29.32L8.766,29.07L8.917,28.71L8.98,28.4L9,28.2L9,21.8L8.98,21.6L8.917,21.29L8.766,20.93L8.595,20.68L8.325,20.41L8.071,20.23L7.709,20.08L7.398,20.02L7.2,20L1.8,20zM11.6,20.02L11.29,20.08L10.93,20.23L10.68,20.41L10.41,20.68L10.23,20.93L10.08,21.29L10.02,21.6L10,21.8L10,28.2L10.02,28.4L10.08,28.71L10.23,29.07L10.41,29.32L10.68,29.59L10.93,29.77L11.29,29.92L11.6,29.98L11.8,30L16.08,30L16.14,29.79L16.29,29.5L16.5,29.24L17.75,28L12,28L12,22L18,22L18,27.75L19.92,25.85L19.58,24.97L19.36,24.05L19.26,23.11L19.3,22.15L19.38,21.57L19.52,21L19.62,20.72L19.59,20.68L19.32,20.41L19.07,20.23L18.71,20.08L18.4,20.02L18.2,20L11.8,20zM7,22L7,28L2,28L2,22zz" fill="#797979"/>
      <path d="M6.488,1.063L6.234,1.234L6.063,1.488L6,1.8L6,10.2L6.063,10.51L6.234,10.77L6.488,10.94L6.8,11L23.2,11L23.51,10.94L23.77,10.77L23.94,10.51L24,10.2L24,1.8L23.94,1.488L23.77,1.234L23.51,1.063L23.2,1L6.8,1zz" fill="#FFFFFF"/>
      <path d="M6.602,0.01973L6.291,0.08262L5.929,0.2336L5.675,0.4051L5.405,0.6754L5.234,0.9295L5.083,1.291L5.02,1.602L5,1.8L5,10.2L5.02,10.4L5.083,10.71L5.234,11.07L5.405,11.32L5.675,11.59L5.929,11.77L6.291,11.92L6.602,11.98L6.8,12L23.2,12L23.4,11.98L23.71,11.92L24.07,11.77L24.32,11.59L24.59,11.32L24.77,11.07L24.92,10.71L24.98,10.4L25,10.2L25,1.8L24.98,1.602L24.92,1.291L24.77,0.9295L24.59,0.6754L24.32,0.4051L24.07,0.2336L23.71,0.08262L23.4,0.01973L23.2,0L6.8,0zM23,2L23,10L7,10L7,2zz" fill="#797979"/>
    </g>
    <g id="overlay">
      <path d="M30.2842,18.697c-2.2909,-2.3055,-6.0089,-2.3019,-8.3044,0.0082c-1.9787,1.9912,-2.2528,5.0455,-0.8238,7.3275l-3.9449,3.9127c-0.2555,0.2571,-0.2555,0.6739,0,0.9309l0.9251,0.9309c0.2554,0.2571,0.6696,0.2571,0.9251,0l3.9475,-3.9153c2.2661,1.4282,5.2927,1.1495,7.2674,-0.8378C32.5715,24.7441,32.5751,21.0025,30.2842,18.697zM28.843,25.6448c-1.5129,1.5225,-3.9658,1.5225,-5.4787,0c-1.5129,-1.5225,-1.5129,-3.991,0,-5.5135c1.5129,-1.5225,3.9658,-1.5225,5.4787,0C30.3559,21.6538,30.3559,24.1223,28.843,25.6448z" fill-rule="evenodd" fill="#217346"/>
    </g>
  </g>
</svg>
