<svg version="1.1" id="Layer_1" xmlns="http://www.w3.org/2000/svg" xmlns:xlink="http://www.w3.org/1999/xlink" x="0px" y="0px" width="16px" height="16px" viewBox="0 0 16 16" enable-background="new 0 0 16 16" xml:space="preserve">
  <g id="main">
    <g id="icon">
      <path d="M4.075,7.01L3.813,7.063L3.632,7.139L3.418,7.283L3.283,7.418L3.138,7.633L3.063,7.813L3.01,8.076L3,8.175L3,9.1L3.113,9.417L3.402,9.59L3.735,9.541L3.962,9.292L4,9.1L4,8.225L4.023,8.109L4.058,8.057L4.109,8.023L4.224,8L8.744,8L8.84,7.847L9.285,7.328L9.681,7L4.174,7zz" fill="#797979"/>
      <path d="M6.5,7.5L8.5,7.5L8.5,5.437L6.5,5.437zz" fill="#797979"/>
      <path d="M3.988,0.5629L3.734,0.7342L3.563,0.9885L3.5,1.3L3.5,4.7L3.563,5.012L3.734,5.266L3.988,5.437L4.3,5.5L10.7,5.5L11.01,5.437L11.27,5.266L11.44,5.012L11.5,4.7L11.5,1.3L11.44,0.9885L11.27,0.7342L11.01,0.5629L10.7,0.5L4.3,0.5zz" fill="#FFFFFF"/>
      <path d="M4.201,0.009961L3.89,0.07266L3.709,0.1482L3.455,0.3197L3.32,0.4547L3.148,0.709L3.073,0.8896L3.01,1.201L3,1.3L3,4.7L3.01,4.799L3.073,5.11L3.148,5.291L3.32,5.545L3.455,5.68L3.709,5.852L3.89,5.927L4.201,5.99L4.3,6L10.7,6L10.8,5.99L11.11,5.927L11.29,5.852L11.55,5.68L11.68,5.545L11.85,5.291L11.93,5.11L11.99,4.799L12,4.7L12,1.3L11.99,1.201L11.93,0.8896L11.85,0.709L11.68,0.4547L11.55,0.3197L11.29,0.1482L11.11,0.07266L10.8,0.009961L10.7,0L4.3,0zM10.65,1L10.81,1.033L10.91,1.094L10.97,1.185L11,1.35L11,4.65L10.97,4.815L10.91,4.906L10.81,4.967L10.65,5L4.35,5L4.185,4.967L4.094,4.906L4.033,4.815L4,4.65L4,1.35L4.033,1.185L4.094,1.094L4.185,1.033L4.35,1zz" fill="#3E79B4"/>
      <path d="M0.9885,9.563L0.7342,9.734L0.5629,9.988L0.5,10.3L0.5,13.7L0.5629,14.01L0.7342,14.27L0.9885,14.44L1.3,14.5L5.7,14.5L6.012,14.44L6.26,14.27L6.279,14.25L6.437,14.01L6.5,13.7L6.5,10.3L6.437,9.988L6.266,9.734L6.012,9.563L5.7,9.5L1.3,9.5zz" fill="#FFFFFF"/>
      <path d="M1.201,9.01L0.8896,9.073L0.709,9.148L0.4547,9.32L0.3197,9.455L0.1482,9.709L0.07266,9.89L0.009961,10.2L0,10.3L0,13.7L0.009961,13.8L0.07266,14.11L0.1482,14.29L0.3197,14.55L0.4547,14.68L0.709,14.85L0.8896,14.93L1.201,14.99L1.3,15L5.7,15L5.799,14.99L6.042,14.94L6.128,14.51L6.254,14.28L6.427,14.06L7,13.5L7,10.3L6.99,10.2L6.927,9.89L6.852,9.709L6.68,9.455L6.545,9.32L6.291,9.148L6.11,9.073L5.799,9.01L5.7,9L1.3,9zM5.65,10L5.815,10.03L5.906,10.09L5.967,10.19L6,10.35L6,13.65L5.967,13.81L5.906,13.91L5.815,13.97L5.65,14L1.35,14L1.185,13.97L1.094,13.91L1.033,13.81L1,13.65L1,10.35L1.033,10.19L1.094,10.09L1.185,10.03L1.35,10zM8,12.5L8.282,12.22L8.08,11.59L8,11.11zz" fill="#797979"/>
    </g>
    <g id="overlay">
      <path d="M14.9717,8.0274c-1.373,-1.3817,-3.6012,-1.3795,-4.9769,0.0049c-1.1858,1.1934,-1.3501,3.0238,-0.4937,4.3914l-2.3642,2.3449c-0.1531,0.1541,-0.1531,0.4039,0,0.5579l0.5544,0.5579c0.1531,0.1541,0.4013,0.1541,0.5544,0l2.3658,-2.3465c1.3581,0.8559,3.1719,0.6889,4.3554,-0.5021C16.3425,11.6515,16.3447,9.4091,14.9717,8.0274zM14.108,12.1913c-0.9067,0.9125,-2.3767,0.9125,-3.2834,0c-0.9067,-0.9124,-0.9067,-2.3918,0,-3.3043c0.9067,-0.9125,2.3767,-0.9125,3.2834,0C15.0147,9.7995,15.0147,11.2789,14.108,12.1913z" fill-rule="evenodd" fill="#217346"/>
    </g>
  </g>
</svg>